<svg width="32" height="33" viewBox="0 0 32 33" fill="none" xmlns="http://www.w3.org/2000/svg">
<path d="M24.4001 8.55113C24.2767 8.42753 24.1302 8.32946 23.9689 8.26255C23.8076 8.19565 23.6347 8.16121 23.4601 8.16121C23.2854 8.16121 23.1125 8.19565 22.9512 8.26255C22.7899 8.32946 22.6434 8.42753 22.5201 8.55113L16.0001 15.0578L9.48005 8.5378C9.35661 8.41436 9.21006 8.31644 9.04878 8.24963C8.88749 8.18282 8.71463 8.14844 8.54005 8.14844C8.36548 8.14844 8.19261 8.18282 8.03133 8.24963C7.87004 8.31644 7.7235 8.41436 7.60005 8.5378C7.47661 8.66124 7.37869 8.80779 7.31188 8.96907C7.24508 9.13036 7.21069 9.30322 7.21069 9.4778C7.21069 9.65237 7.24508 9.82524 7.31188 9.98652C7.37869 10.1478 7.47661 10.2944 7.60005 10.4178L14.1201 16.9378L7.60005 23.4578C7.47661 23.5812 7.37869 23.7278 7.31188 23.8891C7.24508 24.0504 7.21069 24.2232 7.21069 24.3978C7.21069 24.5724 7.24508 24.7452 7.31188 24.9065C7.37869 25.0678 7.47661 25.2144 7.60005 25.3378C7.7235 25.4612 7.87004 25.5592 8.03133 25.626C8.19261 25.6928 8.36548 25.7272 8.54005 25.7272C8.71463 25.7272 8.88749 25.6928 9.04878 25.626C9.21006 25.5592 9.35661 25.4612 9.48005 25.3378L16.0001 18.8178L22.5201 25.3378C22.6435 25.4612 22.79 25.5592 22.9513 25.626C23.1126 25.6928 23.2855 25.7272 23.4601 25.7272C23.6346 25.7272 23.8075 25.6928 23.9688 25.626C24.1301 25.5592 24.2766 25.4612 24.4001 25.3378C24.5235 25.2144 24.6214 25.0678 24.6882 24.9065C24.755 24.7452 24.7894 24.5724 24.7894 24.3978C24.7894 24.2232 24.755 24.0504 24.6882 23.8891C24.6214 23.7278 24.5235 23.5812 24.4001 23.4578L17.8801 16.9378L24.4001 10.4178C24.9067 9.91113 24.9067 9.0578 24.4001 8.55113Z" fill="#440F7C"/>
</svg>
