<svg width="157" height="38" viewBox="0 0 157 38" fill="none" xmlns="http://www.w3.org/2000/svg">
<g clip-path="url(#clip0_15203_23896)">
<path d="M40.249 22.886C40.1653 22.887 40.0824 22.8711 40.0054 22.8394C39.9281 22.8077 39.8578 22.7607 39.7988 22.7012C39.7398 22.6417 39.6931 22.571 39.6616 22.4931C39.6301 22.4152 39.6142 22.3318 39.6154 22.2477V11.5185L35.0417 18.3652C34.9833 18.4511 34.9051 18.5213 34.8137 18.5699C34.7223 18.6185 34.6205 18.6438 34.5172 18.6438C34.4139 18.6438 34.3124 18.6185 34.2211 18.5699C34.1297 18.5213 34.0514 18.4511 33.9931 18.3652L29.441 11.5203V22.2495C29.4476 22.3372 29.4361 22.4252 29.4074 22.5082C29.3786 22.5911 29.3332 22.6672 29.2739 22.7317C29.2146 22.7961 29.1427 22.8475 29.0628 22.8827C28.9828 22.9178 28.8965 22.936 28.8093 22.936C28.7221 22.936 28.6358 22.9178 28.5559 22.8827C28.4759 22.8475 28.4041 22.7961 28.3447 22.7317C28.2854 22.6672 28.24 22.5911 28.2112 22.5082C28.1824 22.4252 28.171 22.3372 28.1776 22.2495V9.4545C28.1766 9.31568 28.2204 9.18033 28.3025 9.06881C28.3845 8.95728 28.5003 8.87565 28.6324 8.8362C28.7591 8.79622 28.8954 8.79948 29.0201 8.84552C29.1448 8.89156 29.2508 8.97779 29.3219 9.09081L34.5273 16.8631L39.7074 9.09081C39.7835 8.9745 39.8951 8.88614 40.0253 8.83894C40.1552 8.79174 40.297 8.78823 40.4293 8.82894C40.5595 8.87185 40.6729 8.95436 40.7545 9.06512C40.8358 9.17588 40.8813 9.3094 40.8841 9.44722V22.2477C40.8832 22.417 40.8159 22.5791 40.697 22.6986C40.5779 22.8182 40.4168 22.8855 40.249 22.886Z" fill="#440F7C"/>
<path d="M52.8115 12.7875V23.6004C52.8115 25.9644 51.104 28.0339 48.7757 28.3285C47.8536 28.4469 46.9175 28.2839 46.0883 27.8605C45.2591 27.4371 44.5751 26.7728 44.1246 25.9535C44.0458 25.8055 44.0287 25.6319 44.0769 25.4711C44.1252 25.3104 44.2347 25.1754 44.3817 25.0961C44.5287 25.0167 44.701 24.9995 44.8606 25.0481C45.0201 25.0967 45.154 25.2071 45.2328 25.3552C45.5357 25.9012 45.9825 26.3521 46.5241 26.658C47.0657 26.9638 47.6806 27.1128 48.3011 27.0883C50.1275 27.0228 51.5499 25.4516 51.5499 23.6004C51.5499 23.4205 51.5062 23.2433 51.4225 23.0844C51.339 22.9254 51.218 22.7895 51.0701 22.6885C50.9224 22.5875 50.7522 22.5245 50.5749 22.505C50.3974 22.4855 50.2177 22.5101 50.0517 22.5765C49.5395 22.7808 48.993 22.885 48.4419 22.8839C45.9492 22.8839 44.0488 20.8835 44.0488 18.2176V12.7875C44.0491 12.6194 44.1124 12.4576 44.2255 12.3343C44.3389 12.211 44.4941 12.1352 44.6607 12.122C44.7444 12.1175 44.8279 12.1302 44.9067 12.1592C44.9856 12.1881 45.0577 12.2328 45.1188 12.2906C45.18 12.3483 45.2289 12.4179 45.2628 12.4952C45.2967 12.5724 45.3147 12.6558 45.3157 12.7402V18.223C45.3157 20.1561 46.6623 21.6127 48.4419 21.6127C50.2216 21.6127 51.5499 20.1579 51.5499 18.223V12.7402C51.5511 12.6558 51.5692 12.5724 51.6028 12.4952C51.6367 12.4179 51.6856 12.3483 51.747 12.2906C51.8082 12.2328 51.8803 12.1881 51.9588 12.1592C52.0377 12.1302 52.1214 12.1175 52.2052 12.122C52.3705 12.1361 52.5249 12.2123 52.637 12.3356C52.7495 12.4589 52.8115 12.6202 52.8115 12.7875Z" fill="#440F7C"/>
<path d="M67.1185 21.8506C67.1711 21.9159 67.2105 21.9911 67.2341 22.0718C67.2573 22.1525 67.2646 22.2371 67.2555 22.3207C67.2463 22.4042 67.2206 22.4852 67.18 22.5587C67.1396 22.6322 67.0849 22.6968 67.0195 22.7489C66.9086 22.842 66.7683 22.8917 66.624 22.8889C66.5293 22.8871 66.4361 22.8647 66.3508 22.8233C66.2655 22.7819 66.19 22.7224 66.1295 22.6489L61.6172 16.8661L57.1049 22.6489C57.0529 22.7146 56.9887 22.7692 56.9157 22.8098C56.8429 22.8504 56.7626 22.876 56.6797 22.8853C56.5969 22.8946 56.5132 22.8874 56.4331 22.864C56.353 22.8405 56.2784 22.8015 56.2133 22.7489C56.0859 22.6405 56.0043 22.4868 55.986 22.3197C55.9673 22.1526 56.0132 21.9846 56.114 21.8506L60.825 15.8495L56.1159 9.82113C56.0614 9.75599 56.0208 9.68042 55.996 9.59903C55.9716 9.51765 55.9633 9.43206 55.9722 9.34744C55.9811 9.26279 56.0067 9.18083 56.048 9.10645C56.089 9.03207 56.1446 8.9668 56.2112 8.91455C56.2778 8.86229 56.3542 8.82414 56.4362 8.80235C56.5178 8.78057 56.6027 8.77557 56.6865 8.78773C56.7702 8.79986 56.8503 8.82889 56.9227 8.87302C56.9948 8.91717 57.0575 8.97555 57.1067 9.04462L61.619 14.8057L66.1314 9.04462C66.2359 8.91311 66.3866 8.82725 66.5525 8.80491C66.7182 8.78255 66.886 8.82542 67.021 8.92463C67.0868 8.97652 67.1412 9.04103 67.1818 9.11437C67.2225 9.18774 67.2478 9.26849 67.2573 9.35192C67.2665 9.43538 67.2591 9.51981 67.2356 9.60038C67.2121 9.68094 67.1729 9.75599 67.1204 9.82113L62.4277 15.8422L67.1185 21.8506Z" fill="#440F7C"/>
<path d="M1.78263 37.174C2.75852 37.174 3.54966 36.3769 3.54966 35.3937C3.54966 34.4104 2.75852 33.6133 1.78263 33.6133C0.806742 33.6133 0.015625 34.4104 0.015625 35.3937C0.015625 36.3769 0.806742 37.174 1.78263 37.174Z" fill="#440F7C"/>
<path d="M9.74942 28.4317C10.7253 28.4317 11.5164 27.6347 11.5164 26.6514C11.5164 25.6682 10.7253 24.8711 9.74942 24.8711C8.77355 24.8711 7.98242 25.6682 7.98242 26.6514C7.98242 27.6347 8.77355 28.4317 9.74942 28.4317Z" fill="#440F7C"/>
<path d="M17.7162 19.6895C18.6921 19.6895 19.4832 18.8925 19.4832 17.9092C19.4832 16.926 18.6921 16.1289 17.7162 16.1289C16.7403 16.1289 15.9492 16.926 15.9492 17.9092C15.9492 18.8925 16.7403 19.6895 17.7162 19.6895Z" fill="#440F7C"/>
<path d="M1.77482 29.1075C2.75071 29.1075 3.54184 28.3105 3.54184 27.3272C3.54184 26.344 2.75071 25.5469 1.77482 25.5469C0.798929 25.5469 0.0078125 26.344 0.0078125 27.3272C0.0078125 28.3105 0.798929 29.1075 1.77482 29.1075Z" fill="#D62196"/>
<path d="M9.74356 20.3653C10.7195 20.3653 11.5106 19.5683 11.5106 18.585C11.5106 17.6018 10.7195 16.8047 9.74356 16.8047C8.76768 16.8047 7.97656 17.6018 7.97656 18.585C7.97656 19.5683 8.76768 20.3653 9.74356 20.3653Z" fill="#D62196"/>
<path d="M17.7104 11.6231C18.6863 11.6231 19.4774 10.8261 19.4774 9.84282C19.4774 8.85957 18.6863 8.0625 17.7104 8.0625C16.7345 8.0625 15.9434 8.85957 15.9434 9.84282C15.9434 10.8261 16.7345 11.6231 17.7104 11.6231Z" fill="#D62196"/>
<path d="M1.76701 21.045C2.7429 21.045 3.53403 20.2479 3.53403 19.2647C3.53403 18.2815 2.7429 17.4844 1.76701 17.4844C0.791117 17.4844 0 18.2815 0 19.2647C0 20.2479 0.791117 21.045 1.76701 21.045Z" fill="#440F7C"/>
<path d="M9.7338 12.3028C10.7097 12.3028 11.5008 11.5057 11.5008 10.5225C11.5008 9.53926 10.7097 8.74219 9.7338 8.74219C8.75792 8.74219 7.9668 9.53926 7.9668 10.5225C7.9668 11.5057 8.75792 12.3028 9.7338 12.3028Z" fill="#440F7C"/>
<path d="M17.7006 3.56062C18.6765 3.56062 19.4676 2.76356 19.4676 1.78032C19.4676 0.797076 18.6765 0 17.7006 0C16.7247 0 15.9336 0.797076 15.9336 1.78032C15.9336 2.76356 16.7247 3.56062 17.7006 3.56062Z" fill="#440F7C"/>
<path d="M79.0168 12.5241V22.1967C79.0214 22.2847 79.0083 22.3728 78.978 22.4555C78.9478 22.5382 78.901 22.6138 78.8408 22.6778C78.7806 22.7418 78.7082 22.7927 78.6278 22.8275C78.5474 22.8623 78.4609 22.8803 78.3732 22.8803C78.2858 22.8803 78.1993 22.8623 78.1189 22.8275C78.0385 22.7927 77.9661 22.7418 77.9059 22.6778C77.8457 22.6138 77.7989 22.5382 77.7687 22.4555C77.7384 22.3728 77.7253 22.2847 77.7298 22.1967V21.062C77.2567 21.6291 76.6644 22.0834 75.9957 22.3919C75.3273 22.7004 74.599 22.8554 73.8636 22.8459C70.9452 22.8459 68.7324 20.4946 68.7324 17.3704C68.7324 14.2462 70.9452 11.8949 73.8636 11.8949C74.5968 11.8862 75.323 12.0396 75.9911 12.3444C76.6592 12.6492 77.2527 13.0979 77.7298 13.6588V12.5241C77.7387 12.3581 77.8102 12.2018 77.9297 12.0874C78.0495 11.973 78.2081 11.9092 78.3732 11.9092C78.5382 11.9092 78.6968 11.973 78.8167 12.0874C78.9365 12.2018 79.008 12.3581 79.0168 12.5241ZM77.7298 17.3704C77.7298 14.9773 76.0782 13.1733 73.8636 13.1733C71.649 13.1733 70.0191 14.9773 70.0191 17.3704C70.0191 19.7636 71.6707 21.553 73.8636 21.553C76.0565 21.553 77.7298 19.7436 77.7298 17.3704Z" fill="#440F7C"/>
<path d="M82.822 9.17655V22.1953C82.822 22.3674 82.7542 22.5326 82.6332 22.6543C82.5124 22.776 82.3486 22.8445 82.1775 22.8445C82.0066 22.8445 81.8428 22.776 81.7221 22.6543C81.6011 22.5326 81.5332 22.3674 81.5332 22.1953V9.17655C81.5332 9.00436 81.6011 8.83924 81.7221 8.71748C81.8428 8.59572 82.0066 8.52734 82.1775 8.52734C82.3486 8.52734 82.5124 8.59572 82.6332 8.71748C82.7542 8.83924 82.822 9.00436 82.822 9.17655Z" fill="#440F7C"/>
<path d="M95.4226 12.5203V22.1929C95.4226 22.3651 95.3548 22.5302 95.2341 22.652C95.113 22.7737 94.9492 22.8421 94.7784 22.8421C94.6075 22.8421 94.4437 22.7737 94.3227 22.652C94.202 22.5302 94.1341 22.3651 94.1341 22.1929V21.0582C93.6613 21.6253 93.0693 22.0795 92.4009 22.388C91.7328 22.6965 91.0048 22.8517 90.2697 22.8421C87.3513 22.8421 85.1367 20.4908 85.1367 17.3666C85.1367 14.2424 87.3583 11.8911 90.2697 11.8911C91.0026 11.8824 91.7285 12.0359 92.3963 12.3406C93.0641 12.6454 93.6573 13.0941 94.1341 13.655V12.5203C94.1341 12.3481 94.202 12.183 94.3227 12.0612C94.4437 11.9395 94.6075 11.8711 94.7784 11.8711C94.9492 11.8711 95.113 11.9395 95.2341 12.0612C95.3548 12.183 95.4226 12.3481 95.4226 12.5203ZM94.1341 17.3666C94.1341 14.9735 92.4843 13.1695 90.2697 13.1695C88.0552 13.1695 86.4252 14.9735 86.4252 17.3666C86.4252 19.7598 88.075 21.5492 90.2697 21.5492C92.4645 21.5492 94.1341 19.7398 94.1341 17.3666Z" fill="#440F7C"/>
<path d="M102.868 12.5241C102.869 12.6096 102.853 12.6944 102.821 12.7736C102.789 12.8529 102.741 12.9248 102.682 12.9853C102.622 13.0458 102.55 13.0935 102.472 13.1258C102.393 13.1581 102.309 13.1742 102.224 13.1733C100.453 13.1733 99.1048 14.6281 99.1048 16.5593V22.1967C99.1143 22.286 99.1051 22.3763 99.0776 22.4618C99.0504 22.5472 99.0055 22.6259 98.9459 22.6927C98.8863 22.7595 98.8132 22.8129 98.7319 22.8495C98.6503 22.886 98.5623 22.9049 98.4731 22.9049C98.3841 22.9049 98.2958 22.886 98.2145 22.8495C98.1332 22.8129 98.0602 22.7595 98.0006 22.6927C97.941 22.6259 97.896 22.5472 97.8688 22.4618C97.8413 22.3763 97.8319 22.286 97.8416 22.1967V12.5241C97.8581 12.367 97.9318 12.2217 98.0485 12.1161C98.1653 12.0105 98.3163 11.9521 98.4731 11.9521C98.6299 11.9521 98.7811 12.0105 98.8979 12.1161C99.0143 12.2217 99.0883 12.367 99.1048 12.5241V13.1933C99.5107 12.7758 99.9963 12.4456 100.532 12.2224C101.068 11.9993 101.644 11.8878 102.224 11.8948C102.307 11.8932 102.39 11.9082 102.468 11.9389C102.545 11.9697 102.616 12.0157 102.676 12.0742C102.736 12.1327 102.784 12.2025 102.817 12.2797C102.85 12.357 102.867 12.44 102.868 12.5241Z" fill="#440F7C"/>
<path d="M114 12.5729V23.5967C114 26.0826 112.132 28.2084 109.668 28.4084C108.763 28.482 107.856 28.2911 107.055 27.8586C106.255 27.4261 105.595 26.7703 105.156 25.9698C105.085 25.8201 105.075 25.6489 105.126 25.4915C105.178 25.3342 105.287 25.2028 105.432 25.1246C105.577 25.0463 105.746 25.0272 105.905 25.0711C106.063 25.115 106.199 25.2187 106.284 25.3606C106.585 25.9047 107.028 26.3561 107.564 26.6667C108.1 26.9774 108.71 27.1356 109.329 27.1246C110.236 27.1008 111.098 26.7192 111.729 26.0619C112.36 25.4045 112.71 24.5239 112.704 23.6094C112.703 23.4223 112.657 23.2381 112.57 23.0729C112.483 22.9078 112.356 22.7667 112.202 22.6622C112.048 22.5576 111.871 22.4926 111.686 22.4729C111.501 22.4532 111.315 22.4794 111.143 22.5492C110.632 22.7472 110.09 22.8477 109.543 22.8456C107.007 22.8456 105.076 20.818 105.076 18.1011V12.5729C105.075 12.484 105.092 12.3958 105.125 12.3134C105.158 12.231 105.207 12.1562 105.269 12.093C105.331 12.0299 105.405 11.9799 105.487 11.9458C105.569 11.9117 105.656 11.8943 105.744 11.8946C105.908 11.8974 106.065 11.9648 106.18 12.0823C106.296 12.1999 106.362 12.3583 106.363 12.5238V18.1011C106.363 20.0669 107.733 21.5563 109.543 21.5563C111.354 21.5563 112.704 20.0742 112.704 18.1011V12.5238C112.706 12.3581 112.772 12.1997 112.888 12.0822C113.003 11.9647 113.16 11.8974 113.325 11.8946C113.413 11.8934 113.502 11.9101 113.584 11.9437C113.666 11.9773 113.741 12.0272 113.804 12.0904C113.867 12.1536 113.917 12.2289 113.95 12.3117C113.984 12.3946 114.001 12.4834 114 12.5729Z" fill="#440F7C"/>
</g>
<path d="M152.505 37.1762C151.726 37.1762 151.033 37.0429 150.425 36.7762C149.817 36.5095 149.337 36.1469 148.985 35.6882C148.633 35.2189 148.435 34.6962 148.393 34.1202H151.097C151.129 34.4295 151.273 34.6802 151.529 34.8722C151.785 35.0642 152.099 35.1602 152.473 35.1602C152.814 35.1602 153.075 35.0962 153.257 34.9682C153.449 34.8295 153.545 34.6535 153.545 34.4402C153.545 34.1842 153.411 33.9975 153.145 33.8802C152.878 33.7522 152.446 33.6135 151.849 33.4642C151.209 33.3149 150.675 33.1602 150.249 33.0002C149.822 32.8295 149.454 32.5682 149.145 32.2162C148.835 31.8535 148.681 31.3682 148.681 30.7602C148.681 30.2482 148.819 29.7842 149.097 29.3682C149.385 28.9415 149.801 28.6055 150.345 28.3602C150.899 28.1149 151.555 27.9922 152.313 27.9922C153.433 27.9922 154.313 28.2695 154.953 28.8242C155.603 29.3789 155.977 30.1149 156.073 31.0322H153.545C153.502 30.7229 153.363 30.4775 153.129 30.2962C152.905 30.1149 152.606 30.0242 152.233 30.0242C151.913 30.0242 151.667 30.0882 151.497 30.2162C151.326 30.3335 151.241 30.4989 151.241 30.7122C151.241 30.9682 151.374 31.1602 151.641 31.2882C151.918 31.4162 152.345 31.5442 152.921 31.6722C153.582 31.8429 154.121 32.0135 154.537 32.1842C154.953 32.3442 155.315 32.6109 155.625 32.9842C155.945 33.3469 156.11 33.8375 156.121 34.4562C156.121 34.9789 155.971 35.4482 155.673 35.8642C155.385 36.2695 154.963 36.5895 154.409 36.8242C153.865 37.0589 153.23 37.1762 152.505 37.1762Z" fill="#5E5873"/>
<path d="M140.75 29.383C141.006 28.967 141.374 28.631 141.854 28.375C142.334 28.119 142.883 27.991 143.502 27.991C144.238 27.991 144.904 28.1777 145.502 28.551C146.099 28.9244 146.568 29.4577 146.91 30.151C147.262 30.8444 147.438 31.6497 147.438 32.567C147.438 33.4844 147.262 34.295 146.91 34.999C146.568 35.6924 146.099 36.231 145.502 36.615C144.904 36.9884 144.238 37.175 143.502 37.175C142.872 37.175 142.323 37.0524 141.854 36.807C141.384 36.551 141.016 36.215 140.75 35.799V37.047H138.014V25.207H140.75V29.383ZM144.654 32.567C144.654 31.8844 144.462 31.351 144.078 30.967C143.704 30.5724 143.24 30.375 142.686 30.375C142.142 30.375 141.678 30.5724 141.294 30.967C140.92 31.3617 140.734 31.9004 140.734 32.583C140.734 33.2657 140.92 33.8044 141.294 34.199C141.678 34.5937 142.142 34.791 142.686 34.791C143.23 34.791 143.694 34.5937 144.078 34.199C144.462 33.7937 144.654 33.2497 144.654 32.567Z" fill="#5E5873"/>
<path d="M131.889 37.1762C131.015 37.1762 130.225 36.9895 129.521 36.6162C128.828 36.2429 128.279 35.7095 127.873 35.0162C127.479 34.3229 127.281 33.5122 127.281 32.5842C127.281 31.6669 127.484 30.8615 127.889 30.1682C128.295 29.4642 128.849 28.9255 129.553 28.5522C130.257 28.1789 131.047 27.9922 131.921 27.9922C132.796 27.9922 133.585 28.1789 134.289 28.5522C134.993 28.9255 135.548 29.4642 135.953 30.1682C136.359 30.8615 136.561 31.6669 136.561 32.5842C136.561 33.5015 136.353 34.3122 135.937 35.0162C135.532 35.7095 134.972 36.2429 134.257 36.6162C133.553 36.9895 132.764 37.1762 131.889 37.1762ZM131.889 34.8082C132.412 34.8082 132.855 34.6162 133.217 34.2322C133.591 33.8482 133.777 33.2989 133.777 32.5842C133.777 31.8695 133.596 31.3202 133.233 30.9362C132.881 30.5522 132.444 30.3602 131.921 30.3602C131.388 30.3602 130.945 30.5522 130.593 30.9362C130.241 31.3095 130.065 31.8589 130.065 32.5842C130.065 33.2989 130.236 33.8482 130.577 34.2322C130.929 34.6162 131.367 34.8082 131.889 34.8082Z" fill="#5E5873"/>
<path d="M125.616 25.8164V33.4644C125.616 34.6484 125.28 35.5604 124.608 36.2004C123.947 36.8404 123.051 37.1604 121.92 37.1604C120.736 37.1604 119.787 36.8244 119.072 36.1524C118.357 35.4804 118 34.5257 118 33.2884H120.72C120.72 33.7577 120.816 34.1151 121.008 34.3604C121.2 34.5951 121.477 34.7124 121.84 34.7124C122.171 34.7124 122.427 34.6057 122.608 34.3924C122.789 34.1791 122.88 33.8697 122.88 33.4644V25.8164H125.616Z" fill="#5E5873"/>
<defs>
<clipPath id="clip0_15203_23896">
<rect width="114" height="37.1739" fill="white"/>
</clipPath>
</defs>
</svg>
