<svg width="32" height="33" viewBox="0 0 32 33" fill="none" xmlns="http://www.w3.org/2000/svg">
<path d="M5.33333 24.9375C4.95556 24.9375 4.63911 24.8095 4.384 24.5535C4.128 24.2984 4 23.9819 4 23.6042C4 23.2264 4.128 22.9099 4.384 22.6548C4.63911 22.3988 4.95556 22.2708 5.33333 22.2708H26.6667C27.0444 22.2708 27.3609 22.3988 27.616 22.6548C27.872 22.9099 28 23.2264 28 23.6042C28 23.9819 27.872 24.2984 27.616 24.5535C27.3609 24.8095 27.0444 24.9375 26.6667 24.9375H5.33333ZM5.33333 18.2708C4.95556 18.2708 4.63911 18.1428 4.384 17.8868C4.128 17.6317 4 17.3153 4 16.9375C4 16.5597 4.128 16.2428 4.384 15.9868C4.63911 15.7317 4.95556 15.6042 5.33333 15.6042H26.6667C27.0444 15.6042 27.3609 15.7317 27.616 15.9868C27.872 16.2428 28 16.5597 28 16.9375C28 17.3153 27.872 17.6317 27.616 17.8868C27.3609 18.1428 27.0444 18.2708 26.6667 18.2708H5.33333ZM5.33333 11.6042C4.95556 11.6042 4.63911 11.4766 4.384 11.2215C4.128 10.9655 4 10.6486 4 10.2708C4 9.89306 4.128 9.57617 4.384 9.32017C4.63911 9.06506 4.95556 8.9375 5.33333 8.9375H26.6667C27.0444 8.9375 27.3609 9.06506 27.616 9.32017C27.872 9.57617 28 9.89306 28 10.2708C28 10.6486 27.872 10.9655 27.616 11.2215C27.3609 11.4766 27.0444 11.6042 26.6667 11.6042H5.33333Z" fill="#440F7C"/>
</svg>
