<svg width="114" height="38" viewBox="0 0 114 38" fill="none" xmlns="http://www.w3.org/2000/svg">
<g clip-path="url(#clip0_15203_24142)">
<path d="M40.2497 22.886C40.1659 22.887 40.0831 22.8711 40.0061 22.8394C39.9288 22.8077 39.8585 22.7607 39.7995 22.7012C39.7405 22.6417 39.6937 22.571 39.6622 22.4931C39.6308 22.4152 39.6149 22.3318 39.6161 22.2477V11.5185L35.0423 18.3652C34.984 18.4511 34.9057 18.5213 34.8143 18.5699C34.723 18.6185 34.6212 18.6438 34.5179 18.6438C34.4146 18.6438 34.3131 18.6185 34.2217 18.5699C34.1303 18.5213 34.0521 18.4511 33.9937 18.3652L29.4417 11.5203V22.2495C29.4483 22.3372 29.4368 22.4252 29.4081 22.5082C29.3793 22.5911 29.3338 22.6672 29.2745 22.7317C29.2152 22.7961 29.1433 22.8475 29.0634 22.8827C28.9835 22.9178 28.8972 22.936 28.81 22.936C28.7227 22.936 28.6365 22.9178 28.5565 22.8827C28.4766 22.8475 28.4047 22.7961 28.3454 22.7317C28.2861 22.6672 28.2407 22.5911 28.2119 22.5082C28.1831 22.4252 28.1717 22.3372 28.1783 22.2495V9.4545C28.1773 9.31568 28.2211 9.18033 28.3031 9.06881C28.3852 8.95728 28.501 8.87565 28.6331 8.8362C28.7598 8.79622 28.8961 8.79948 29.0208 8.84552C29.1454 8.89156 29.2515 8.97779 29.3226 9.09081L34.528 16.8631L39.7081 9.09081C39.7842 8.9745 39.8957 8.88614 40.0259 8.83894C40.1558 8.79174 40.2976 8.78823 40.43 8.82894C40.5602 8.87185 40.6736 8.95436 40.7552 9.06512C40.8365 9.17588 40.882 9.3094 40.8848 9.44722V22.2477C40.8838 22.417 40.8166 22.5791 40.6977 22.6986C40.5785 22.8182 40.4175 22.8855 40.2497 22.886Z" fill="#440F7C"/>
<path d="M52.8117 12.7875V23.6004C52.8117 25.9644 51.1041 28.0339 48.7758 28.3285C47.8537 28.4469 46.9176 28.2839 46.0884 27.8605C45.2592 27.4371 44.5752 26.7728 44.1247 25.9535C44.0459 25.8055 44.0288 25.6319 44.0771 25.4711C44.1254 25.3104 44.2348 25.1754 44.3818 25.0961C44.5288 25.0167 44.7012 24.9995 44.8607 25.0481C45.0202 25.0967 45.1541 25.2071 45.233 25.3552C45.5358 25.9012 45.9827 26.3521 46.5242 26.658C47.0658 26.9638 47.6807 27.1128 48.3012 27.0883C50.1276 27.0228 51.55 25.4516 51.55 23.6004C51.55 23.4205 51.5063 23.2433 51.4226 23.0844C51.3391 22.9254 51.2181 22.7895 51.0702 22.6885C50.9226 22.5875 50.7523 22.5245 50.5751 22.505C50.3975 22.4855 50.2178 22.5101 50.0518 22.5765C49.5396 22.7808 48.9931 22.885 48.4421 22.8839C45.9494 22.8839 44.049 20.8835 44.049 18.2176V12.7875C44.0493 12.6194 44.1125 12.4576 44.2256 12.3343C44.339 12.211 44.4943 12.1352 44.6608 12.122C44.7446 12.1175 44.828 12.1302 44.9069 12.1592C44.9857 12.1881 45.0578 12.2328 45.119 12.2906C45.1801 12.3483 45.229 12.4179 45.2629 12.4952C45.2968 12.5724 45.3149 12.6558 45.3158 12.7402V18.223C45.3158 20.1561 46.6624 21.6127 48.4421 21.6127C50.2218 21.6127 51.55 20.1579 51.55 18.223V12.7402C51.5512 12.6558 51.5693 12.5724 51.6029 12.4952C51.6368 12.4179 51.6857 12.3483 51.7472 12.2906C51.8083 12.2328 51.8804 12.1881 51.959 12.1592C52.0378 12.1302 52.1215 12.1175 52.2053 12.122C52.3706 12.1361 52.525 12.2123 52.6371 12.3356C52.7496 12.4589 52.8117 12.6202 52.8117 12.7875Z" fill="#440F7C"/>
<path d="M67.1191 21.8506C67.1717 21.9159 67.2111 21.9911 67.2346 22.0718C67.2578 22.1525 67.2652 22.2371 67.256 22.3207C67.2468 22.4042 67.2212 22.4852 67.1805 22.5587C67.1402 22.6322 67.0855 22.6968 67.0201 22.7489C66.9091 22.842 66.7688 22.8917 66.6246 22.8889C66.5298 22.8871 66.4366 22.8647 66.3513 22.8233C66.2661 22.7819 66.1906 22.7224 66.1301 22.6489L61.6177 16.8661L57.1054 22.6489C57.0535 22.7146 56.9893 22.7692 56.9162 22.8098C56.8435 22.8504 56.7631 22.876 56.6803 22.8853C56.5975 22.8946 56.5137 22.8874 56.4336 22.864C56.3536 22.8405 56.279 22.8015 56.2139 22.7489C56.0864 22.6405 56.0048 22.4868 55.9865 22.3197C55.9679 22.1526 56.0137 21.9846 56.1146 21.8506L60.8256 15.8495L56.1164 9.82113C56.062 9.75599 56.0213 9.68042 55.9966 9.59903C55.9721 9.51765 55.9639 9.43206 55.9728 9.34744C55.9816 9.26279 56.0073 9.18083 56.0486 9.10645C56.0895 9.03207 56.1451 8.9668 56.2118 8.91455C56.2784 8.86229 56.3548 8.82414 56.4367 8.80235C56.5183 8.78057 56.6033 8.77557 56.687 8.78773C56.7708 8.79986 56.8508 8.82889 56.9233 8.87302C56.9954 8.91717 57.058 8.97555 57.1073 9.04462L61.6196 14.8057L66.1319 9.04462C66.2364 8.91311 66.3871 8.82725 66.5531 8.80491C66.7187 8.78255 66.8865 8.82542 67.0216 8.92463C67.0873 8.97652 67.1417 9.04103 67.1824 9.11437C67.223 9.18774 67.2484 9.26849 67.2578 9.35192C67.267 9.43538 67.2597 9.51981 67.2361 9.60038C67.2126 9.68094 67.1735 9.75599 67.1209 9.82113L62.4283 15.8422L67.1191 21.8506Z" fill="#440F7C"/>
<path d="M1.78324 37.174C2.75913 37.174 3.55027 36.3769 3.55027 35.3937C3.55027 34.4104 2.75913 33.6133 1.78324 33.6133C0.807353 33.6133 0.0162354 34.4104 0.0162354 35.3937C0.0162354 36.3769 0.807353 37.174 1.78324 37.174Z" fill="#440F7C"/>
<path d="M9.75022 28.4317C10.7261 28.4317 11.5172 27.6347 11.5172 26.6514C11.5172 25.6682 10.7261 24.8711 9.75022 24.8711C8.77434 24.8711 7.98322 25.6682 7.98322 26.6514C7.98322 27.6347 8.77434 28.4317 9.75022 28.4317Z" fill="#440F7C"/>
<path d="M17.717 19.6895C18.6929 19.6895 19.484 18.8925 19.484 17.9092C19.484 16.926 18.6929 16.1289 17.717 16.1289C16.7411 16.1289 15.95 16.926 15.95 17.9092C15.95 18.8925 16.7411 19.6895 17.717 19.6895Z" fill="#440F7C"/>
<path d="M1.77427 29.1075C2.75016 29.1075 3.54129 28.3105 3.54129 27.3272C3.54129 26.344 2.75016 25.5469 1.77427 25.5469C0.798379 25.5469 0.00726318 26.344 0.00726318 27.3272C0.00726318 28.3105 0.798379 29.1075 1.77427 29.1075Z" fill="#D62196"/>
<path d="M9.74295 20.3653C10.7189 20.3653 11.5099 19.5683 11.5099 18.585C11.5099 17.6018 10.7189 16.8047 9.74295 16.8047C8.76707 16.8047 7.97595 17.6018 7.97595 18.585C7.97595 19.5683 8.76707 20.3653 9.74295 20.3653Z" fill="#D62196"/>
<path d="M17.7098 11.6231C18.6857 11.6231 19.4768 10.8261 19.4768 9.84282C19.4768 8.85957 18.6857 8.0625 17.7098 8.0625C16.7339 8.0625 15.9428 8.85957 15.9428 9.84282C15.9428 10.8261 16.7339 11.6231 17.7098 11.6231Z" fill="#D62196"/>
<path d="M1.76701 21.045C2.7429 21.045 3.53403 20.2479 3.53403 19.2647C3.53403 18.2815 2.7429 17.4844 1.76701 17.4844C0.791117 17.4844 0 18.2815 0 19.2647C0 20.2479 0.791117 21.045 1.76701 21.045Z" fill="#440F7C"/>
<path d="M9.73386 12.3028C10.7098 12.3028 11.5009 11.5057 11.5009 10.5225C11.5009 9.53926 10.7098 8.74219 9.73386 8.74219C8.75798 8.74219 7.96686 9.53926 7.96686 10.5225C7.96686 11.5057 8.75798 12.3028 9.73386 12.3028Z" fill="#440F7C"/>
<path d="M17.7008 3.56062C18.6767 3.56062 19.4678 2.76356 19.4678 1.78032C19.4678 0.797076 18.6767 0 17.7008 0C16.7249 0 15.9338 0.797076 15.9338 1.78032C15.9338 2.76356 16.7249 3.56062 17.7008 3.56062Z" fill="#440F7C"/>
<path d="M79.0173 12.5241V22.1967C79.0219 22.2847 79.0087 22.3728 78.9784 22.4555C78.9482 22.5382 78.9014 22.6138 78.8412 22.6778C78.781 22.7418 78.7086 22.7927 78.6282 22.8275C78.5478 22.8623 78.4613 22.8803 78.3736 22.8803C78.2862 22.8803 78.1997 22.8623 78.1193 22.8275C78.0389 22.7927 77.9665 22.7418 77.9063 22.6778C77.8461 22.6138 77.7993 22.5382 77.7691 22.4555C77.7388 22.3728 77.7257 22.2847 77.7303 22.1967V21.062C77.2571 21.6291 76.6648 22.0834 75.9961 22.3919C75.3277 22.7004 74.5994 22.8554 73.8641 22.8459C70.9456 22.8459 68.7328 20.4946 68.7328 17.3704C68.7328 14.2462 70.9456 11.8949 73.8641 11.8949C74.5973 11.8862 75.3234 12.0396 75.9915 12.3444C76.6596 12.6492 77.2532 13.0979 77.7303 13.6588V12.5241C77.7391 12.3581 77.8106 12.2018 77.9301 12.0874C78.0499 11.973 78.2086 11.9092 78.3736 11.9092C78.5387 11.9092 78.6973 11.973 78.8171 12.0874C78.9369 12.2018 79.0084 12.3581 79.0173 12.5241ZM77.7303 17.3704C77.7303 14.9773 76.0786 13.1733 73.8641 13.1733C71.6495 13.1733 70.0195 14.9773 70.0195 17.3704C70.0195 19.7636 71.6712 21.553 73.8641 21.553C76.0569 21.553 77.7303 19.7436 77.7303 17.3704Z" fill="#440F7C"/>
<path d="M82.8221 9.17655V22.1953C82.8221 22.3674 82.7542 22.5326 82.6332 22.6543C82.5125 22.776 82.3487 22.8445 82.1775 22.8445C82.0067 22.8445 81.8429 22.776 81.7221 22.6543C81.6011 22.5326 81.5333 22.3674 81.5333 22.1953V9.17655C81.5333 9.00436 81.6011 8.83924 81.7221 8.71748C81.8429 8.59572 82.0067 8.52734 82.1775 8.52734C82.3487 8.52734 82.5125 8.59572 82.6332 8.71748C82.7542 8.83924 82.8221 9.00436 82.8221 9.17655Z" fill="#440F7C"/>
<path d="M95.4219 12.5203V22.1929C95.4219 22.3651 95.354 22.5302 95.2333 22.652C95.1123 22.7737 94.9485 22.8421 94.7776 22.8421C94.6068 22.8421 94.443 22.7737 94.3219 22.652C94.2012 22.5302 94.1334 22.3651 94.1334 22.1929V21.0582C93.6606 21.6253 93.0686 22.0795 92.4002 22.388C91.7321 22.6965 91.004 22.8517 90.269 22.8421C87.3506 22.8421 85.136 20.4908 85.136 17.3666C85.136 14.2424 87.3576 11.8911 90.269 11.8911C91.0019 11.8824 91.7278 12.0359 92.3956 12.3406C93.0634 12.6454 93.6566 13.0941 94.1334 13.655V12.5203C94.1334 12.3481 94.2012 12.183 94.3219 12.0612C94.443 11.9395 94.6068 11.8711 94.7776 11.8711C94.9485 11.8711 95.1123 11.9395 95.2333 12.0612C95.354 12.183 95.4219 12.3481 95.4219 12.5203ZM94.1334 17.3666C94.1334 14.9735 92.4836 13.1695 90.269 13.1695C88.0544 13.1695 86.4245 14.9735 86.4245 17.3666C86.4245 19.7598 88.0743 21.5492 90.269 21.5492C92.4637 21.5492 94.1334 19.7398 94.1334 17.3666Z" fill="#440F7C"/>
<path d="M102.869 12.5241C102.87 12.6096 102.854 12.6944 102.822 12.7736C102.79 12.8529 102.742 12.9248 102.683 12.9853C102.623 13.0458 102.551 13.0935 102.473 13.1258C102.394 13.1581 102.31 13.1742 102.225 13.1733C100.454 13.1733 99.1057 14.6281 99.1057 16.5593V22.1967C99.1152 22.286 99.106 22.3763 99.0785 22.4618C99.0513 22.5472 99.0064 22.6259 98.9468 22.6927C98.8872 22.7595 98.8141 22.8129 98.7328 22.8495C98.6512 22.886 98.5632 22.9049 98.474 22.9049C98.385 22.9049 98.2967 22.886 98.2154 22.8495C98.1341 22.8129 98.0611 22.7595 98.0015 22.6927C97.9419 22.6259 97.897 22.5472 97.8698 22.4618C97.8422 22.3763 97.8328 22.286 97.8426 22.1967V12.5241C97.8591 12.367 97.9327 12.2217 98.0495 12.1161C98.1662 12.0105 98.3172 11.9521 98.474 11.9521C98.6308 11.9521 98.7821 12.0105 98.8988 12.1161C99.0153 12.2217 99.0892 12.367 99.1057 12.5241V13.1933C99.5116 12.7758 99.9972 12.4456 100.533 12.2224C101.069 11.9993 101.645 11.8878 102.225 11.8948C102.308 11.8932 102.391 11.9082 102.469 11.9389C102.546 11.9697 102.617 12.0157 102.677 12.0742C102.737 12.1327 102.785 12.2025 102.818 12.2797C102.851 12.357 102.868 12.44 102.869 12.5241Z" fill="#440F7C"/>
<path d="M114 12.5729V23.5967C114 26.0826 112.132 28.2084 109.668 28.4084C108.763 28.482 107.856 28.2911 107.056 27.8586C106.255 27.4261 105.596 26.7703 105.156 25.9698C105.086 25.8201 105.075 25.6489 105.127 25.4915C105.178 25.3342 105.287 25.2028 105.432 25.1246C105.577 25.0463 105.746 25.0272 105.905 25.0711C106.064 25.115 106.199 25.2187 106.284 25.3606C106.586 25.9047 107.028 26.3561 107.564 26.6667C108.101 26.9774 108.71 27.1356 109.329 27.1246C110.236 27.1008 111.098 26.7192 111.729 26.0619C112.361 25.4045 112.711 24.5239 112.704 23.6094C112.704 23.4223 112.658 23.2381 112.57 23.0729C112.483 22.9078 112.357 22.7667 112.203 22.6622C112.049 22.5576 111.871 22.4926 111.687 22.4729C111.502 22.4532 111.315 22.4794 111.143 22.5492C110.633 22.7472 110.09 22.8477 109.544 22.8456C107.008 22.8456 105.077 20.818 105.077 18.1011V12.5729C105.076 12.484 105.092 12.3958 105.125 12.3134C105.158 12.231 105.208 12.1562 105.27 12.093C105.332 12.0299 105.406 11.9799 105.487 11.9458C105.569 11.9117 105.656 11.8943 105.744 11.8946C105.909 11.8974 106.065 11.9648 106.181 12.0823C106.297 12.1999 106.362 12.3583 106.364 12.5238V18.1011C106.364 20.0669 107.733 21.5563 109.544 21.5563C111.354 21.5563 112.704 20.0742 112.704 18.1011V12.5238C112.706 12.3581 112.772 12.1997 112.888 12.0822C113.004 11.9647 113.16 11.8974 113.325 11.8946C113.414 11.8934 113.502 11.9101 113.584 11.9437C113.667 11.9773 113.741 12.0272 113.804 12.0904C113.867 12.1536 113.917 12.2289 113.95 12.3117C113.984 12.3946 114.001 12.4834 114 12.5729Z" fill="#440F7C"/>
</g>
<defs>
<clipPath id="clip0_15203_24142">
<rect width="114" height="37.1739" fill="white"/>
</clipPath>
</defs>
</svg>
